<svg width="40" height="40" viewBox="0 0 40 40" fill="none" xmlns="http://www.w3.org/2000/svg">
<path d="M32.8685 25.4981C32.3148 19.3703 29.2593 16.2962 29.2593 16.2962L23.7037 8.88881H16.2963L10.7407 16.2962C10.7407 16.2962 9.42685 17.6231 8.36388 20.2545C6.52222 20.8657 5.18518 22.5823 5.18518 24.6295C5.18518 25.9703 5.76388 27.1684 6.675 28.0138C6.32685 28.6638 6.11111 29.3953 6.11111 30.1851C6.11111 31.9981 7.16296 33.5518 8.68055 34.311C9.86851 36.0907 11.4556 36.6666 12.5926 36.6666H27.4074C28.6843 36.6666 30.5305 35.9453 31.7389 33.6018C33.5268 32.962 34.8148 31.2684 34.8148 29.2592C34.8148 27.7055 34.0426 26.3388 32.8685 25.4981ZM20 8.88881C20.5093 8.88881 20.9796 8.74251 21.3889 8.50362C21.7991 8.74251 22.2694 8.88881 22.7778 8.88881C24.312 8.88881 26.4815 6.71844 26.4815 5.1851C26.4815 5.1851 26.4815 3.33325 24.6296 3.33325C23.9 3.33325 23.7037 4.25918 22.7778 4.25918C21.8518 4.25918 21.8518 3.33325 20 3.33325C18.1481 3.33325 18.1481 4.25918 17.2222 4.25918C16.2963 4.25918 16.1009 3.33325 15.3704 3.33325C13.5185 3.33325 13.5185 5.1851 13.5185 5.1851C13.5185 6.71844 15.6889 8.88881 17.2222 8.88881C17.7305 8.88881 18.2009 8.74251 18.6111 8.50362C19.0213 8.74251 19.4917 8.88881 20 8.88881Z" fill="#FDD888"/>
<path d="M25.5556 8.88882C25.5556 9.39993 25.1417 9.81474 24.6296 9.81474H15.3704C14.8593 9.81474 14.4445 9.39993 14.4445 8.88882C14.4445 8.37771 14.8593 7.96289 15.3704 7.96289H24.6296C25.1417 7.96289 25.5556 8.37771 25.5556 8.88882Z" fill="#BF6952"/>
<path d="M25.4639 26.0574C25.4639 21.9121 17.5185 22.1824 17.5185 19.6815C17.5185 18.4704 18.7231 17.8787 20.1213 17.8787C22.4713 17.8787 22.8898 19.3315 23.9537 19.3315C24.7064 19.3315 25.0694 18.875 25.0694 18.363C25.0694 17.1741 23.1953 16.2741 21.3981 15.963V14.8149C21.3981 14.0991 20.7963 13.5186 20.0518 13.5186C19.3064 13.5186 18.7037 14.0991 18.7037 14.8149V16.0028C16.7444 16.4315 15.0583 17.7389 15.0583 19.8695C15.0583 23.85 23.0018 23.6889 23.0018 26.4852C23.0018 27.4547 21.9111 28.4232 20.1213 28.4232C17.4351 28.4232 16.5407 26.6741 15.45 26.6741C14.9185 26.6741 14.4435 27.1037 14.4435 27.7519C14.4435 28.7824 16.2379 30.0213 18.7055 30.3667L18.7046 30.376V31.6704C18.7046 32.3852 19.3083 32.9667 20.0527 32.9667C20.7972 32.9667 21.4 32.3852 21.4 31.6704V30.376C21.4 30.3602 21.3926 30.3482 21.3916 30.3343C23.612 29.9361 25.4639 28.5454 25.4639 26.0574Z" fill="#67757F"/>
</svg>
