<svg width="24" height="24" viewBox="0 0 24 24" fill="none" xmlns="http://www.w3.org/2000/svg">
<path d="M9.24602 8.25C8.69402 8.25 8.24603 8.698 8.25003 9.25C8.25003 9.802 8.69803 10.25 9.25003 10.25C9.80203 10.25 10.25 9.802 10.25 9.25C10.25 8.698 9.80202 8.25 9.24602 8.25Z" fill="#C71D1D" stroke="#C71D1D" stroke-width="0.5" stroke-linecap="round" stroke-linejoin="round"/>
<path d="M14.746 13.75C14.194 13.75 13.746 14.198 13.75 14.75C13.75 15.302 14.198 15.75 14.75 15.75C15.302 15.75 15.75 15.302 15.75 14.75C15.75 14.198 15.302 13.75 14.746 13.75Z" fill="#C71D1D" stroke="#C71D1D" stroke-width="0.5" stroke-linecap="round" stroke-linejoin="round"/>
<path d="M8.80602 19.71H6.47102C5.26702 19.71 4.29002 18.734 4.29002 17.529V16.097C4.29002 15.519 4.06002 14.964 3.65102 14.555L2.63802 13.542C1.78602 12.69 1.78602 11.31 2.63802 10.458L3.65102 9.44499C4.06002 9.03599 4.29002 8.48199 4.29002 7.90299V6.47099C4.29002 5.26699 5.26602 4.28999 6.47102 4.28999H7.90302C8.48102 4.28999 9.03602 4.05999 9.44502 3.65099L10.458 2.63799C11.31 1.78599 12.69 1.78599 13.542 2.63799L14.555 3.65099C14.964 4.05999 15.519 4.28999 16.097 4.28999H17.529C18.733 4.28999 19.71 5.26599 19.71 6.47099V7.90299C19.71 8.48099 19.94 9.03599 20.349 9.44499L21.362 10.458C22.214 11.31 22.214 12.69 21.362 13.542L20.349 14.555C19.94 14.964 19.71 15.519 19.71 16.097V17.529C19.71 18.733 18.734 19.71 17.529 19.71H16.097C15.519 19.71 14.964 19.94 14.555 20.349L13.542 21.362C12.69 22.214 11.31 22.214 10.458 21.362L8.80602 19.71Z" stroke="#202433" stroke-width="2" stroke-linecap="round" stroke-linejoin="round"/>
<path d="M9 15L15 9L9 15Z" fill="#C71D1D"/>
<path d="M9 15L15 9" stroke="#C71D1D" stroke-width="2" stroke-linecap="round" stroke-linejoin="round"/>
</svg>
