<svg width="24" height="24" viewBox="0 0 24 24" fill="none" xmlns="http://www.w3.org/2000/svg">
<path d="M14 12H10C8.895 12 8 11.105 8 10V8C8 6.895 8.895 6 10 6H14C15.105 6 16 6.895 16 8V10C16 11.105 15.105 12 14 12Z" stroke="#202433" stroke-width="2" stroke-linecap="round" stroke-linejoin="round"/>
<path d="M17 21H7C5.343 21 4 19.657 4 18C4 16.343 5.343 15 7 15H17C18.657 15 20 16.343 20 18C20 19.657 18.657 21 17 21Z" stroke="#202433" stroke-width="2" stroke-linecap="round" stroke-linejoin="round"/>
<path d="M7.5025 17.245C7.05251 17.245 6.7525 17.5451 6.7525 17.9951C6.7525 18.4451 7.05251 18.745 7.5025 18.745C7.95249 18.745 8.2525 18.4451 8.2525 17.9951C8.2525 17.5451 7.95249 17.245 7.5025 17.245Z" fill="#202433"/>
<path d="M10.5025 17.255C10.0525 17.255 9.7525 17.5549 9.7525 18.0049C9.7525 18.4549 10.0525 18.755 10.5025 18.755C10.9525 18.755 11.2525 18.4549 11.2525 18.0049C11.2525 17.5549 10.9525 17.255 10.5025 17.255Z" fill="#202433"/>
<path d="M13.4975 17.25C13.0475 17.25 12.7475 17.5499 12.7475 18C12.7475 18.4501 13.0475 18.75 13.4975 18.75C13.9475 18.75 14.2475 18.4501 14.2475 18C14.2475 17.5499 13.9475 17.25 13.4975 17.25Z" fill="#202433"/>
<path d="M16.4976 17.25C16.0477 17.25 15.7475 17.5499 15.7475 18C15.7475 18.4501 16.0477 18.75 16.4976 18.75C16.9476 18.75 17.2475 18.4501 17.2475 18C17.2475 17.5499 16.9476 17.25 16.4976 17.25Z" fill="#202433"/>
<path d="M14 6V3.875C14 2.839 13.105 2 12 2C10.895 2 10 2.839 10 3.875V6" stroke="#202433" stroke-width="2" stroke-linecap="round" stroke-linejoin="round"/>
</svg>
