<svg width="24" height="24" viewBox="0 0 24 24" fill="none" xmlns="http://www.w3.org/2000/svg">
<path d="M20 11.2417C20 15.6097 16.843 19.7037 12.52 20.9277C12.182 21.0237 11.818 21.0237 11.48 20.9277C7.157 19.7047 4 15.6097 4 11.2417V7.21375C4 6.40175 4.491 5.66975 5.243 5.36275L10.107 3.37275C11.321 2.87575 12.681 2.87575 13.894 3.37275L18.758 5.36275C19.509 5.66975 20 6.40175 20 7.21375V11.2417Z" stroke="#202433" stroke-width="2" stroke-linecap="round" stroke-linejoin="round"/>
<path d="M13.538 11.9249C13.974 11.4359 14.18 10.7389 13.985 9.99992C13.804 9.31192 13.24 8.75092 12.552 8.57192C11.177 8.21392 9.941 9.24192 9.941 10.5589C9.941 11.0839 10.138 11.5619 10.461 11.9249C10.693 12.1849 10.787 12.5379 10.692 12.8729L10.306 14.2259C10.123 14.8649 10.603 15.5009 11.268 15.5009H12.734C13.398 15.5009 13.878 14.8649 13.696 14.2259L13.31 12.8729C13.212 12.5379 13.307 12.1849 13.538 11.9249V11.9249Z" stroke="#202433" stroke-width="2" stroke-linecap="round" stroke-linejoin="round"/>
</svg>
