<svg width="32" height="32" viewBox="0 0 32 32" fill="none" xmlns="http://www.w3.org/2000/svg">
<path d="M18.884 28.0002L24.8093 26.6828C25.8947 26.4428 26.6667 25.4802 26.6667 24.3695V7.68818C26.6667 6.57751 25.8947 5.61485 24.8107 5.37485L18.8853 4.05751C17.404 3.72818 16 4.85485 16 6.37218V25.6868C16 27.2028 17.404 28.3295 18.884 28.0002V28.0002Z" stroke="#C7C8CC" stroke-width="2" stroke-linecap="round" stroke-linejoin="round"/>
<path d="M20 14.6396V17.3063" stroke="#C7C8CC" stroke-width="2" stroke-linecap="round" stroke-linejoin="round"/>
<path d="M5.33333 21.333V24.0557C5.33333 25.529 6.52666 26.7223 7.99999 26.7223H12" stroke="#C7C8CC" stroke-width="2" stroke-linecap="round" stroke-linejoin="round"/>
<path d="M5.33333 10.6663V7.99967C5.33333 6.52634 6.52666 5.33301 7.99999 5.33301H12" stroke="#C7C8CC" stroke-width="2" stroke-linecap="round" stroke-linejoin="round"/>
<path d="M5.33333 16H12" stroke="#C7C8CC" stroke-width="2" stroke-linecap="round" stroke-linejoin="round"/>
<path d="M9.33333 18.6663L12 15.9997L9.33333 13.333" stroke="#C7C8CC" stroke-width="2" stroke-linecap="round" stroke-linejoin="round"/>
</svg>
