<svg width="24" height="24" viewBox="0 0 24 24" fill="none" xmlns="http://www.w3.org/2000/svg">
<path d="M20.1172 3.88278C21.2942 5.05982 21.2942 6.96818 20.1172 8.14522C18.9402 9.32226 17.0318 9.32226 15.8548 8.14522C14.6777 6.96818 14.6777 5.05982 15.8548 3.88278C17.0318 2.70574 18.9402 2.70574 20.1172 3.88278" stroke="#C71D1D" stroke-width="2" stroke-linecap="round" stroke-linejoin="round"/>
<path d="M19 13V19C19 20.105 18.105 21 17 21H5C3.895 21 3 20.105 3 19V7C3 5.895 3.895 5 5 5H11" stroke="#202433" stroke-width="2" stroke-linecap="round" stroke-linejoin="round"/>
<path d="M7 17H15" stroke="#202433" stroke-width="2" stroke-linecap="round" stroke-linejoin="round"/>
<path d="M7 13H15" stroke="#202433" stroke-width="2" stroke-linecap="round" stroke-linejoin="round"/>
<path d="M7 9H11" stroke="#202433" stroke-width="2" stroke-linecap="round" stroke-linejoin="round"/>
</svg>
