<svg width="24" height="24" viewBox="0 0 24 24" fill="none" xmlns="http://www.w3.org/2000/svg">
<path d="M11 5H21" stroke="#202433" stroke-width="2" stroke-linecap="round" stroke-linejoin="round"/>
<path d="M11 12H21" stroke="#202433" stroke-width="2" stroke-linecap="round" stroke-linejoin="round"/>
<path d="M11 19H21" stroke="#202433" stroke-width="2" stroke-linecap="round" stroke-linejoin="round"/>
<path d="M6 7H4C3.448 7 3 6.552 3 6V4C3 3.448 3.448 3 4 3H6C6.552 3 7 3.448 7 4V6C7 6.552 6.552 7 6 7Z" stroke="#202433" stroke-width="2" stroke-linecap="round" stroke-linejoin="round"/>
<path d="M6 14H4C3.448 14 3 13.552 3 13V11C3 10.448 3.448 10 4 10H6C6.552 10 7 10.448 7 11V13C7 13.552 6.552 14 6 14Z" stroke="#C71D1D" stroke-width="2" stroke-linecap="round" stroke-linejoin="round"/>
<path d="M6 21H4C3.448 21 3 20.552 3 20V18C3 17.448 3.448 17 4 17H6C6.552 17 7 17.448 7 18V20C7 20.552 6.552 21 6 21Z" stroke="#202433" stroke-width="2" stroke-linecap="round" stroke-linejoin="round"/>
</svg>
