<svg width="32" height="32" viewBox="0 0 32 32" fill="none" xmlns="http://www.w3.org/2000/svg">
<g id="icon_perfil">
<g id="icon_perfil_2">
<path id="Oval" d="M16 31C24.2843 31 31 24.2843 31 16C31 7.71573 24.2843 1 16 1C7.71573 1 1 7.71573 1 16C1 24.2843 7.71573 31 16 31Z" fill="white" stroke="#BD0E14"/>
<g id="User">
<g id="Simbolo">
<path d="M14.2699 11.1499C12.1975 11.8833 10.4543 12.5003 10.0192 14.9958C9.99515 14.9203 9.9693 14.8403 9.94213 14.7562C9.48381 13.3371 8.64823 10.75 9.45454 9.20403C10.9972 7.15689 16.8287 7.6951 20.4092 8.02556C21.1622 8.09505 21.8156 8.15536 22.3087 8.1805C23.1451 8.46991 23.1381 8.79815 22.2875 9.15815C18.7616 9.94873 16.1851 10.577 14.5616 11.0464C14.4637 11.0813 14.3665 11.1157 14.2699 11.1499Z" fill="#C71D1D"/>
<path d="M19.2804 19.8151C17.5398 16.5602 15.4122 12.6346 20.6745 10.4817C14.6357 11.2864 10.8839 13.2452 14.3957 18.8534C17.198 22.7746 17.7663 24.9699 17.0145 25.997C17.2522 25.8176 17.5022 25.6398 17.7539 25.4609C19.3143 24.3516 20.9367 23.1982 20.0674 21.3382C19.8366 20.8552 19.5632 20.344 19.2804 19.8151Z" fill="#C71D1D"/>
</g>
</g>
</g>
</g>
</svg>
