<svg width="24" height="24" viewBox="0 0 24 24" fill="none" xmlns="http://www.w3.org/2000/svg">
<path d="M11 8V6.333C11 5.597 11.597 5 12.333 5H17.666C18.403 5 19 5.597 19 6.333V11.666C19 12.403 18.403 13 17.667 13H16" stroke="#202433" stroke-width="2" stroke-linecap="round" stroke-linejoin="round"/>
<path d="M5 17.667V12.334C5 11.597 5.597 11 6.333 11H11.666C12.403 11 13 11.597 13 12.333V17.666C13 18.403 12.403 19 11.667 19H6.333C5.597 19 5 18.403 5 17.667V17.667Z" stroke="#202433" stroke-width="2" stroke-linecap="round" stroke-linejoin="round"/>
<path d="M2.76999 9.53802C3.64999 6.24002 6.23999 3.65002 9.53799 2.77002" stroke="#C71D1D" stroke-width="2" stroke-linecap="round" stroke-linejoin="round"/>
<path d="M15.198 21C17.906 20.039 20.039 17.906 21 15.198" stroke="#C71D1D" stroke-width="2" stroke-linecap="round" stroke-linejoin="round"/>
</svg>
